0
SECTION
2
HEADER
9
$INSUNITS
70
4
0
ENDSEC
0
SECTION
2
TABLES
0
TABLE
2
LTYPE
0
LTYPE
72
65
70
64
2
CONTINUOUS
3
______
73
0
40
0
0
ENDTAB
0
TABLE
2
LAYER
0
ENDTAB
0
ENDSEC
0
SECTION
2
ENTITIES
0
LINE
8
0
10
2.525
20
-2.525
11
16.525
21
-2.525
0
LINE
8
0
10
2.525
20
-16.525
11
16.525
21
-16.525
0
LINE
8
0
10
2.525
20
-2.525
11
2.525
21
-16.525
0
LINE
8
0
10
16.525
20
-2.525
11
16.525
21
-16.525
0
LINE
8
0
10
21.575
20
-2.525
11
35.575
21
-2.525
0
LINE
8
0
10
21.575
20
-16.525
11
35.575
21
-16.525
0
LINE
8
0
10
21.575
20
-2.525
11
21.575
21
-16.525
0
LINE
8
0
10
35.575
20
-2.525
11
35.575
21
-16.525
0
LINE
8
0
10
40.625
20
-2.525
11
54.625
21
-2.525
0
LINE
8
0
10
40.625
20
-16.525
11
54.625
21
-16.525
0
LINE
8
0
10
40.625
20
-2.525
11
40.625
21
-16.525
0
LINE
8
0
10
54.625
20
-2.525
11
54.625
21
-16.525
0
LINE
8
0
10
59.675
20
-2.525
11
73.675
21
-2.525
0
LINE
8
0
10
59.675
20
-16.525
11
73.675
21
-16.525
0
LINE
8
0
10
59.675
20
-2.525
11
59.675
21
-16.525
0
LINE
8
0
10
73.675
20
-2.525
11
73.675
21
-16.525
0
LINE
8
0
10
78.725
20
-2.525
11
92.725
21
-2.525
0
LINE
8
0
10
78.725
20
-16.525
11
92.725
21
-16.525
0
LINE
8
0
10
78.725
20
-2.525
11
78.725
21
-16.525
0
LINE
8
0
10
92.725
20
-2.525
11
92.725
21
-16.525
0
LINE
8
0
10
97.775
20
-2.525
11
111.775
21
-2.525
0
LINE
8
0
10
97.775
20
-16.525
11
111.775
21
-16.525
0
LINE
8
0
10
97.775
20
-2.525
11
97.775
21
-16.525
0
LINE
8
0
10
111.775
20
-2.525
11
111.775
21
-16.525
0
LINE
8
0
10
116.825
20
-2.525
11
130.825
21
-2.525
0
LINE
8
0
10
116.825
20
-16.525
11
130.825
21
-16.525
0
LINE
8
0
10
116.825
20
-2.525
11
116.825
21
-16.525
0
LINE
8
0
10
130.825
20
-2.525
11
130.825
21
-16.525
0
LINE
8
0
10
135.875
20
-2.525
11
149.875
21
-2.525
0
LINE
8
0
10
135.875
20
-16.525
11
149.875
21
-16.525
0
LINE
8
0
10
135.875
20
-2.525
11
135.875
21
-16.525
0
LINE
8
0
10
149.875
20
-2.525
11
149.875
21
-16.525
0
LINE
8
0
10
154.925
20
-2.525
11
168.925
21
-2.525
0
LINE
8
0
10
154.925
20
-16.525
11
168.925
21
-16.525
0
LINE
8
0
10
154.925
20
-2.525
11
154.925
21
-16.525
0
LINE
8
0
10
168.925
20
-2.525
11
168.925
21
-16.525
0
LINE
8
0
10
181.11875
20
-2.525
11
195.11875
21
-2.525
0
LINE
8
0
10
181.11875
20
-16.525
11
195.11875
21
-16.525
0
LINE
8
0
10
181.11875
20
-2.525
11
181.11875
21
-16.525
0
LINE
8
0
10
195.11875
20
-2.525
11
195.11875
21
-16.525
0
LINE
8
0
10
4.90625
20
-21.575
11
18.90625
21
-21.575
0
LINE
8
0
10
4.90625
20
-35.575
11
18.90625
21
-35.575
0
LINE
8
0
10
4.90625
20
-21.575
11
4.90625
21
-35.575
0
LINE
8
0
10
18.90625
20
-21.575
11
18.90625
21
-35.575
0
LINE
8
0
10
26.3375
20
-21.575
11
40.3375
21
-21.575
0
LINE
8
0
10
26.3375
20
-35.575
11
40.3375
21
-35.575
0
LINE
8
0
10
26.3375
20
-21.575
11
26.3375
21
-35.575
0
LINE
8
0
10
40.3375
20
-21.575
11
40.3375
21
-35.575
0
LINE
8
0
10
45.3875
20
-21.575
11
59.3875
21
-21.575
0
LINE
8
0
10
45.3875
20
-35.575
11
59.3875
21
-35.575
0
LINE
8
0
10
45.3875
20
-21.575
11
45.3875
21
-35.575
0
LINE
8
0
10
59.3875
20
-21.575
11
59.3875
21
-35.575
0
LINE
8
0
10
64.4375
20
-21.575
11
78.4375
21
-21.575
0
LINE
8
0
10
64.4375
20
-35.575
11
78.4375
21
-35.575
0
LINE
8
0
10
64.4375
20
-21.575
11
64.4375
21
-35.575
0
LINE
8
0
10
78.4375
20
-21.575
11
78.4375
21
-35.575
0
LINE
8
0
10
83.4875
20
-21.575
11
97.4875
21
-21.575
0
LINE
8
0
10
83.4875
20
-35.575
11
97.4875
21
-35.575
0
LINE
8
0
10
83.4875
20
-21.575
11
83.4875
21
-35.575
0
LINE
8
0
10
97.4875
20
-21.575
11
97.4875
21
-35.575
0
LINE
8
0
10
102.5375
20
-21.575
11
116.5375
21
-21.575
0
LINE
8
0
10
102.5375
20
-35.575
11
116.5375
21
-35.575
0
LINE
8
0
10
102.5375
20
-21.575
11
102.5375
21
-35.575
0
LINE
8
0
10
116.5375
20
-21.575
11
116.5375
21
-35.575
0
LINE
8
0
10
121.5875
20
-21.575
11
135.5875
21
-21.575
0
LINE
8
0
10
121.5875
20
-35.575
11
135.5875
21
-35.575
0
LINE
8
0
10
121.5875
20
-21.575
11
121.5875
21
-35.575
0
LINE
8
0
10
135.5875
20
-21.575
11
135.5875
21
-35.575
0
LINE
8
0
10
140.6375
20
-21.575
11
154.6375
21
-21.575
0
LINE
8
0
10
140.6375
20
-35.575
11
154.6375
21
-35.575
0
LINE
8
0
10
140.6375
20
-21.575
11
140.6375
21
-35.575
0
LINE
8
0
10
154.6375
20
-21.575
11
154.6375
21
-35.575
0
LINE
8
0
10
159.6875
20
-21.575
11
173.6875
21
-21.575
0
LINE
8
0
10
159.6875
20
-35.575
11
173.6875
21
-35.575
0
LINE
8
0
10
159.6875
20
-21.575
11
159.6875
21
-35.575
0
LINE
8
0
10
173.6875
20
-21.575
11
173.6875
21
-35.575
0
LINE
8
0
10
183.5
20
-21.575
11
197.5
21
-21.575
0
LINE
8
0
10
183.5
20
-35.575
11
197.5
21
-35.575
0
LINE
8
0
10
183.5
20
-21.575
11
183.5
21
-35.575
0
LINE
8
0
10
197.5
20
-21.575
11
197.5
21
-35.575
0
LINE
8
0
10
199.9765
20
-31.1
11
199.9765
21
-45.1
0
LINE
8
0
10
185.9765
20
-31.1
11
185.9765
21
-45.1
0
LINE
8
0
10
199.9765
20
-31.1
11
185.9765
21
-31.1
0
LINE
8
0
10
199.9765
20
-45.1
11
185.9765
21
-45.1
0
LINE
8
0
10
198.6661
20
-22.8346
11
198.6661
21
-29.4894
0
LINE
8
0
10
198.6661
20
-29.4894
11
197.8533
21
-29.4894
0
LINE
8
0
10
197.8533
20
-29.4894
11
197.8533
21
-38.1
0
LINE
8
0
10
187.1599
20
-38.1
11
187.1599
21
-29.4894
0
LINE
8
0
10
187.1599
20
-29.4894
11
186.3725
21
-29.4894
0
LINE
8
0
10
186.3725
20
-29.4894
11
186.3725
21
-27.686
0
LINE
8
0
10
186.3725
20
-27.686
11
185.2041
21
-27.686
0
LINE
8
0
10
185.2041
20
-27.686
11
185.2041
21
-24.638
0
LINE
8
0
10
185.2041
20
-24.638
11
186.3725
21
-24.638
0
LINE
8
0
10
186.3725
20
-24.638
11
186.3725
21
-22.8346
0
LINE
8
0
10
186.3725
20
-22.8346
11
192.4685
21
-22.8346
0
LINE
8
0
10
192.4685
20
-22.8346
11
192.4685
21
-21.971
0
LINE
8
0
10
192.4685
20
-21.971
11
195.2625
21
-21.971
0
LINE
8
0
10
195.2625
20
-21.971
11
195.2625
21
-22.8346
0
LINE
8
0
10
195.2625
20
-22.8346
11
198.6661
21
-22.8346
0
LINE
8
0
10
198.6661
20
-53.3654
11
198.6661
21
-46.7106
0
LINE
8
0
10
198.6661
20
-46.7106
11
197.8533
21
-46.7106
0
LINE
8
0
10
197.8533
20
-46.7106
11
197.8533
21
-38.1
0
LINE
8
0
10
187.1599
20
-38.1
11
187.1599
21
-46.7106
0
LINE
8
0
10
187.1599
20
-46.7106
11
186.3725
21
-46.7106
0
LINE
8
0
10
186.3725
20
-46.7106
11
186.3725
21
-48.514
0
LINE
8
0
10
186.3725
20
-48.514
11
185.2041
21
-48.514
0
LINE
8
0
10
185.2041
20
-48.514
11
185.2041
21
-51.562
0
LINE
8
0
10
185.2041
20
-51.562
11
186.3725
21
-51.562
0
LINE
8
0
10
186.3725
20
-51.562
11
186.3725
21
-53.3654
0
LINE
8
0
10
186.3725
20
-53.3654
11
192.4685
21
-53.3654
0
LINE
8
0
10
192.4685
20
-53.3654
11
192.4685
21
-54.229
0
LINE
8
0
10
192.4685
20
-54.229
11
195.2625
21
-54.229
0
LINE
8
0
10
195.2625
20
-54.229
11
195.2625
21
-53.3654
0
LINE
8
0
10
195.2625
20
-53.3654
11
198.6661
21
-53.3654
0
LINE
8
0
10
7.2875
20
-40.625
11
21.2875
21
-40.625
0
LINE
8
0
10
7.2875
20
-54.625
11
21.2875
21
-54.625
0
LINE
8
0
10
7.2875
20
-40.625
11
7.2875
21
-54.625
0
LINE
8
0
10
21.2875
20
-40.625
11
21.2875
21
-54.625
0
LINE
8
0
10
31.1
20
-40.625
11
45.1
21
-40.625
0
LINE
8
0
10
31.1
20
-54.625
11
45.1
21
-54.625
0
LINE
8
0
10
31.1
20
-40.625
11
31.1
21
-54.625
0
LINE
8
0
10
45.1
20
-40.625
11
45.1
21
-54.625
0
LINE
8
0
10
50.15
20
-40.625
11
64.15
21
-40.625
0
LINE
8
0
10
50.15
20
-54.625
11
64.15
21
-54.625
0
LINE
8
0
10
50.15
20
-40.625
11
50.15
21
-54.625
0
LINE
8
0
10
64.15
20
-40.625
11
64.15
21
-54.625
0
LINE
8
0
10
69.2
20
-40.625
11
83.2
21
-40.625
0
LINE
8
0
10
69.2
20
-54.625
11
83.2
21
-54.625
0
LINE
8
0
10
69.2
20
-40.625
11
69.2
21
-54.625
0
LINE
8
0
10
83.2
20
-40.625
11
83.2
21
-54.625
0
LINE
8
0
10
88.25
20
-40.625
11
102.25
21
-40.625
0
LINE
8
0
10
88.25
20
-54.625
11
102.25
21
-54.625
0
LINE
8
0
10
88.25
20
-40.625
11
88.25
21
-54.625
0
LINE
8
0
10
102.25
20
-40.625
11
102.25
21
-54.625
0
LINE
8
0
10
107.3
20
-40.625
11
121.3
21
-40.625
0
LINE
8
0
10
107.3
20
-54.625
11
121.3
21
-54.625
0
LINE
8
0
10
107.3
20
-40.625
11
107.3
21
-54.625
0
LINE
8
0
10
121.3
20
-40.625
11
121.3
21
-54.625
0
LINE
8
0
10
126.35
20
-40.625
11
140.35
21
-40.625
0
LINE
8
0
10
126.35
20
-54.625
11
140.35
21
-54.625
0
LINE
8
0
10
126.35
20
-40.625
11
126.35
21
-54.625
0
LINE
8
0
10
140.35
20
-40.625
11
140.35
21
-54.625
0
LINE
8
0
10
145.4
20
-40.625
11
159.4
21
-40.625
0
LINE
8
0
10
145.4
20
-54.625
11
159.4
21
-54.625
0
LINE
8
0
10
145.4
20
-40.625
11
145.4
21
-54.625
0
LINE
8
0
10
159.4
20
-40.625
11
159.4
21
-54.625
0
LINE
8
0
10
164.45
20
-40.625
11
178.45
21
-40.625
0
LINE
8
0
10
164.45
20
-54.625
11
178.45
21
-54.625
0
LINE
8
0
10
164.45
20
-40.625
11
164.45
21
-54.625
0
LINE
8
0
10
178.45
20
-40.625
11
178.45
21
-54.625
0
LINE
8
0
10
185.88125
20
-40.625
11
199.88125
21
-40.625
0
LINE
8
0
10
185.88125
20
-54.625
11
199.88125
21
-54.625
0
LINE
8
0
10
185.88125
20
-40.625
11
185.88125
21
-54.625
0
LINE
8
0
10
199.88125
20
-40.625
11
199.88125
21
-54.625
0
LINE
8
0
10
2.525
20
-59.675
11
16.525
21
-59.675
0
LINE
8
0
10
2.525
20
-73.675
11
16.525
21
-73.675
0
LINE
8
0
10
2.525
20
-59.675
11
2.525
21
-73.675
0
LINE
8
0
10
16.525
20
-59.675
11
16.525
21
-73.675
0
LINE
8
0
10
21.575
20
-59.675
11
35.575
21
-59.675
0
LINE
8
0
10
21.575
20
-73.675
11
35.575
21
-73.675
0
LINE
8
0
10
21.575
20
-59.675
11
21.575
21
-73.675
0
LINE
8
0
10
35.575
20
-59.675
11
35.575
21
-73.675
0
LINE
8
0
10
23.95625
20
-59.675
11
37.95625
21
-59.675
0
LINE
8
0
10
23.95625
20
-73.675
11
37.95625
21
-73.675
0
LINE
8
0
10
23.95625
20
-59.675
11
23.95625
21
-73.675
0
LINE
8
0
10
37.95625
20
-59.675
11
37.95625
21
-73.675
0
LINE
8
0
10
40.625
20
-59.675
11
54.625
21
-59.675
0
LINE
8
0
10
40.625
20
-73.675
11
54.625
21
-73.675
0
LINE
8
0
10
40.625
20
-59.675
11
40.625
21
-73.675
0
LINE
8
0
10
54.625
20
-59.675
11
54.625
21
-73.675
0
LINE
8
0
10
95.39375
20
-59.675
11
109.39375
21
-59.675
0
LINE
8
0
10
95.39375
20
-73.675
11
109.39375
21
-73.675
0
LINE
8
0
10
95.39375
20
-59.675
11
95.39375
21
-73.675
0
LINE
8
0
10
109.39375
20
-59.675
11
109.39375
21
-73.675
0
LINE
8
0
10
49.06635
20
-60.9854
11
55.72115
21
-60.9854
0
LINE
8
0
10
55.72115
20
-60.9854
11
55.72115
21
-64.375
0
LINE
8
0
10
55.72115
20
-64.375
11
102.39375
21
-64.375
0
LINE
8
0
10
102.39375
20
-68.975
11
55.72115
21
-68.975
0
LINE
8
0
10
55.72115
20
-68.975
11
55.72115
21
-73.279
0
LINE
8
0
10
55.72115
20
-73.279
11
53.91775
21
-73.279
0
LINE
8
0
10
53.91775
20
-73.279
11
53.91775
21
-74.4474
0
LINE
8
0
10
53.91775
20
-74.4474
11
50.86975
21
-74.4474
0
LINE
8
0
10
50.86975
20
-74.4474
11
50.86975
21
-73.279
0
LINE
8
0
10
50.86975
20
-73.279
11
49.06635
21
-73.279
0
LINE
8
0
10
49.06635
20
-73.279
11
49.06635
21
-67.183
0
LINE
8
0
10
49.06635
20
-67.183
11
48.20275
21
-67.183
0
LINE
8
0
10
48.20275
20
-67.183
11
48.20275
21
-64.389
0
LINE
8
0
10
48.20275
20
-64.389
11
49.06635
21
-64.389
0
LINE
8
0
10
49.06635
20
-64.389
11
49.06635
21
-60.9854
0
LINE
8
0
10
155.72115
20
-60.9854
11
149.06635
21
-60.9854
0
LINE
8
0
10
149.06635
20
-60.9854
11
149.06635
21
-64.375
0
LINE
8
0
10
149.06635
20
-64.375
11
102.39375
21
-64.375
0
LINE
8
0
10
102.39375
20
-68.975
11
149.06635
21
-68.975
0
LINE
8
0
10
149.06635
20
-68.975
11
149.06635
21
-73.279
0
LINE
8
0
10
149.06635
20
-73.279
11
150.86975
21
-73.279
0
LINE
8
0
10
150.86975
20
-73.279
11
150.86975
21
-74.4474
0
LINE
8
0
10
150.86975
20
-74.4474
11
153.91775
21
-74.4474
0
LINE
8
0
10
153.91775
20
-74.4474
11
153.91775
21
-73.279
0
LINE
8
0
10
153.91775
20
-73.279
11
155.72115
21
-73.279
0
LINE
8
0
10
155.72115
20
-73.279
11
155.72115
21
-67.183
0
LINE
8
0
10
155.72115
20
-67.183
11
156.58475
21
-67.183
0
LINE
8
0
10
156.58475
20
-67.183
11
156.58475
21
-64.389
0
LINE
8
0
10
156.58475
20
-64.389
11
155.72115
21
-64.389
0
LINE
8
0
10
155.72115
20
-64.389
11
155.72115
21
-60.9854
0
LINE
8
0
10
59.675
20
-59.675
11
73.675
21
-59.675
0
LINE
8
0
10
59.675
20
-73.675
11
73.675
21
-73.675
0
LINE
8
0
10
59.675
20
-59.675
11
59.675
21
-73.675
0
LINE
8
0
10
73.675
20
-59.675
11
73.675
21
-73.675
0
LINE
8
0
10
95.39375
20
-59.675
11
109.39375
21
-59.675
0
LINE
8
0
10
95.39375
20
-73.675
11
109.39375
21
-73.675
0
LINE
8
0
10
95.39375
20
-59.675
11
95.39375
21
-73.675
0
LINE
8
0
10
109.39375
20
-59.675
11
109.39375
21
-73.675
0
LINE
8
0
10
87.12835
20
-60.9854
11
93.78315
21
-60.9854
0
LINE
8
0
10
93.78315
20
-60.9854
11
93.78315
21
-61.7982
0
LINE
8
0
10
93.78315
20
-61.7982
11
102.39375
21
-61.7982
0
LINE
8
0
10
102.39375
20
-72.4916
11
93.78315
21
-72.4916
0
LINE
8
0
10
93.78315
20
-72.4916
11
93.78315
21
-73.279
0
LINE
8
0
10
93.78315
20
-73.279
11
91.97975
21
-73.279
0
LINE
8
0
10
91.97975
20
-73.279
11
91.97975
21
-74.4474
0
LINE
8
0
10
91.97975
20
-74.4474
11
88.93175
21
-74.4474
0
LINE
8
0
10
88.93175
20
-74.4474
11
88.93175
21
-73.279
0
LINE
8
0
10
88.93175
20
-73.279
11
87.12835
21
-73.279
0
LINE
8
0
10
87.12835
20
-73.279
11
87.12835
21
-67.183
0
LINE
8
0
10
87.12835
20
-67.183
11
86.26475
21
-67.183
0
LINE
8
0
10
86.26475
20
-67.183
11
86.26475
21
-64.389
0
LINE
8
0
10
86.26475
20
-64.389
11
87.12835
21
-64.389
0
LINE
8
0
10
87.12835
20
-64.389
11
87.12835
21
-60.9854
0
LINE
8
0
10
117.65915
20
-60.9854
11
111.00435
21
-60.9854
0
LINE
8
0
10
111.00435
20
-60.9854
11
111.00435
21
-61.7982
0
LINE
8
0
10
111.00435
20
-61.7982
11
102.39375
21
-61.7982
0
LINE
8
0
10
102.39375
20
-72.4916
11
111.00435
21
-72.4916
0
LINE
8
0
10
111.00435
20
-72.4916
11
111.00435
21
-73.279
0
LINE
8
0
10
111.00435
20
-73.279
11
112.80775
21
-73.279
0
LINE
8
0
10
112.80775
20
-73.279
11
112.80775
21
-74.4474
0
LINE
8
0
10
112.80775
20
-74.4474
11
115.85575
21
-74.4474
0
LINE
8
0
10
115.85575
20
-74.4474
11
115.85575
21
-73.279
0
LINE
8
0
10
115.85575
20
-73.279
11
117.65915
21
-73.279
0
LINE
8
0
10
117.65915
20
-73.279
11
117.65915
21
-67.183
0
LINE
8
0
10
117.65915
20
-67.183
11
118.52275
21
-67.183
0
LINE
8
0
10
118.52275
20
-67.183
11
118.52275
21
-64.389
0
LINE
8
0
10
118.52275
20
-64.389
11
117.65915
21
-64.389
0
LINE
8
0
10
117.65915
20
-64.389
11
117.65915
21
-60.9854
0
LINE
8
0
10
131.1125
20
-59.675
11
145.1125
21
-59.675
0
LINE
8
0
10
131.1125
20
-73.675
11
145.1125
21
-73.675
0
LINE
8
0
10
131.1125
20
-59.675
11
131.1125
21
-73.675
0
LINE
8
0
10
145.1125
20
-59.675
11
145.1125
21
-73.675
0
LINE
8
0
10
150.1625
20
-59.675
11
164.1625
21
-59.675
0
LINE
8
0
10
150.1625
20
-73.675
11
164.1625
21
-73.675
0
LINE
8
0
10
150.1625
20
-59.675
11
150.1625
21
-73.675
0
LINE
8
0
10
164.1625
20
-59.675
11
164.1625
21
-73.675
0
LINE
8
0
10
166.83125
20
-59.675
11
180.83125
21
-59.675
0
LINE
8
0
10
166.83125
20
-73.675
11
180.83125
21
-73.675
0
LINE
8
0
10
166.83125
20
-59.675
11
166.83125
21
-73.675
0
LINE
8
0
10
180.83125
20
-59.675
11
180.83125
21
-73.675
0
LINE
8
0
10
169.2125
20
-59.675
11
183.2125
21
-59.675
0
LINE
8
0
10
169.2125
20
-73.675
11
183.2125
21
-73.675
0
LINE
8
0
10
169.2125
20
-59.675
11
169.2125
21
-73.675
0
LINE
8
0
10
183.2125
20
-59.675
11
183.2125
21
-73.675
0
LINE
8
0
10
188.2625
20
-59.675
11
202.2625
21
-59.675
0
LINE
8
0
10
188.2625
20
-73.675
11
202.2625
21
-73.675
0
LINE
8
0
10
188.2625
20
-59.675
11
188.2625
21
-73.675
0
LINE
8
0
10
202.2625
20
-59.675
11
202.2625
21
-73.675
0
LINE
8
0
10
0
20
-76.2
11
204.7875
21
-76.2
0
LINE
8
0
10
0
20
0
11
204.7875
21
0
0
LINE
8
0
10
0
20
-76.2
11
0
21
0
0
LINE
8
0
10
204.7875
20
-76.2
11
204.7875
21
0
0
ENDSEC
0
EOF